<?xml version="1.0" standalone="no"?>
<!DOCTYPE svg PUBLIC "-//W3C//DTD SVG 20010904//EN"
 "http://www.w3.org/TR/2001/REC-SVG-20010904/DTD/svg10.dtd">
<svg version="1.0" xmlns="http://www.w3.org/2000/svg"
 width="512.000000pt" height="512.000000pt" viewBox="0 0 512.000000 512.000000"
 preserveAspectRatio="xMidYMid meet">
<metadata>
Created by potrace 1.14, written by Peter Selinger 2001-2017
</metadata>
<g transform="translate(0.000000,512.000000) scale(0.100000,-0.100000)"
fill="#000000" stroke="none">
<path d="M320 2560 l0 -2240 2240 0 2240 0 0 2240 0 2240 -2240 0 -2240 0 0
-2240z m2398 1590 c377 -40 708 -198 976 -466 425 -426 572 -1055 381 -1631
-77 -232 -210 -445 -386 -622 -430 -430 -1057 -578 -1636 -386 -232 77 -445
210 -622 386 -429 429 -578 1058 -386 1634 158 475 534 852 1010 1010 218 73
442 98 663 75z"/>
<path d="M2380 3825 c-163 -24 -317 -76 -456 -156 l-77 -44 357 -3 c196 -1
516 -1 712 0 l357 3 -77 44 c-246 140 -540 197 -816 156z"/>
<path d="M1734 3208 c24 -51 195 -408 381 -793 185 -385 360 -748 388 -807 27
-60 53 -108 57 -108 4 0 30 48 57 107 28 60 203 423 388 808 186 385 357 742
381 793 l43 92 -869 0 -869 0 43 -92z"/>
<path d="M1393 3084 c-78 -181 -107 -325 -107 -524 0 -171 14 -260 65 -415
101 -304 349 -586 644 -733 57 -28 208 -83 267 -96 l27 -6 -43 92 c-24 51
-184 386 -356 743 -172 358 -349 726 -394 819 l-82 170 -21 -50z"/>
<path d="M3638 2993 c-36 -76 -216 -448 -398 -828 -183 -379 -350 -727 -371
-773 l-38 -82 27 6 c59 13 210 68 267 96 106 53 228 140 321 230 193 186 314
407 371 678 24 117 24 363 0 480 -20 91 -69 244 -96 298 l-17 34 -66 -139z"/>
</g>
</svg>
